<svg xmlns="http://www.w3.org/2000/svg" version="1.0" preserveAspectRatio="xMidYMid meet" viewBox="163 270.16 695.76 477.57">

<g transform="translate(0.000000,1024.000000) scale(0.100000,-0.100000)" fill="#000000" stroke="none">
<path d="M3430 7525 c-688 -95 -1210 -600 -1352 -1310 -30 -148 -32 -467 -4 -620 40 -222 146 -477 271 -656 125 -178 321 -354 512 -459 256 -142 508 -204 828 -204 325 1 526 53 752 196 35 22 63 43 63 47 0 4 -43 -7 -95 -25 -179 -63 -441 -80 -640 -44 -88 17 -260 68 -339 101 -183 78 -424 284 -553 474 -258 383 -338 839 -223 1282 140 539 478 901 1006 1079 160 54 397 63 592 23 30 -6 56 -9 58 -6 6 6 -150 61 -246 87 -175 47 -434 62 -630 35z"/>
<path d="M5602 7068 c-8 -8 -12 -58 -12 -160 l0 -148 -61 -152 c-78 -197 -202 -439 -284 -553 -129 -181 -281 -323 -443 -414 -94 -54 -176 -75 -267 -68 -89 6 -152 28 -241 83 l-71 44 -7 117 c-8 143 -7 423 2 423 4 -1 29 -48 57 -106 95 -203 244 -415 333 -476 26 -18 62 -33 88 -36 81 -9 81 2 -3 76 -162 142 -272 288 -368 487 -83 170 -94 207 -105 339 -4 61 -14 126 -20 144 -11 28 -16 32 -49 32 -48 0 -61 -14 -61 -67 l0 -43 -179 0 -178 0 -6 56 c-3 31 -8 58 -11 61 -3 3 -27 1 -53 -3 l-48 -9 -7 -55 c-3 -30 -6 -106 -7 -168 -1 -106 -4 -121 -47 -250 -84 -255 -181 -423 -452 -784 -77 -104 -137 -188 -134 -188 14 0 210 170 257 222 61 68 175 240 227 342 22 44 60 132 85 195 24 64 48 125 53 136 5 12 9 -166 9 -447 l1 -468 -77 0 c-43 0 -170 -9 -283 -20 -113 -11 -213 -20 -222 -20 -16 0 -18 -11 -18 -87 l0 -86 183 6 c100 3 233 11 295 18 62 6 115 10 117 8 1 -2 4 -71 6 -154 4 -149 4 -150 -18 -153 -20 -3 -23 -9 -23 -47 0 -24 3 -46 8 -48 4 -3 174 -8 378 -12 l371 -8 7 26 c16 65 -9 97 -76 97 l-28 0 0 154 c0 149 1 155 21 161 30 10 488 -11 804 -35 117 -10 527 -58 531 -63 1 -1 4 -117 8 -258 l7 -256 -63 -7 c-35 -4 -68 -12 -75 -18 -18 -15 -17 -122 1 -137 9 -8 157 -10 532 -9 l519 3 3 73 c3 70 2 72 -23 82 -15 6 -37 10 -51 10 l-24 0 0 191 0 191 28 -6 c72 -15 419 -79 607 -112 116 -20 289 -51 385 -69 96 -18 177 -31 178 -30 8 7 14 204 8 229 -8 31 -30 38 -296 95 -231 49 -367 74 -590 106 -96 14 -209 31 -250 38 l-75 13 0 222 c0 122 2 218 6 214 220 -252 369 -377 517 -432 30 -12 57 -19 59 -16 3 2 -120 127 -272 278 -153 150 -286 286 -297 301 -19 27 -20 39 -13 432 l8 403 66 -131 c214 -422 497 -787 801 -1032 96 -77 278 -205 292 -205 2 0 -41 46 -96 103 -511 521 -810 940 -1017 1422 -42 99 -43 101 -49 252 -3 95 -10 157 -17 164 -9 9 -30 9 -75 3 l-63 -9 -5 -65 -5 -65 -247 -3 -248 -2 0 59 c0 51 -3 62 -22 75 -26 19 -109 21 -126 4z m648 -750 l0 -461 -47 59 c-115 146 -329 508 -378 637 -22 58 -55 184 -55 207 0 6 100 11 233 13 127 1 235 3 240 5 4 1 7 -206 7 -460z m-407 69 c84 -174 173 -336 253 -459 l44 -68 -195 0 -195 0 0 350 c0 193 2 350 4 350 3 0 43 -78 89 -173z m-1754 -169 c-1 -134 -4 -272 -8 -307 l-6 -65 -49 55 c-107 118 -210 305 -251 454 -14 49 -25 93 -25 97 0 5 77 8 170 8 l170 0 -1 -242z m1496 -416 l-7 -624 -42 6 c-22 3 -73 8 -112 12 -40 3 -77 10 -84 14 -10 6 -14 95 -18 398 l-5 391 35 48 c51 70 142 228 190 330 29 63 42 82 46 68 2 -11 1 -301 -3 -643z m-1668 118 c28 -41 73 -101 98 -132 l47 -58 -129 0 c-70 0 -145 3 -165 6 l-38 7 0 256 1 256 67 -130 c37 -71 90 -164 119 -205z m1358 -637 l-7 -63 -57 0 c-32 0 -86 3 -121 7 l-62 6 7 221 7 221 88 91 c48 50 100 110 116 132 l29 40 3 -296 c2 -163 0 -325 -3 -359z m965 400 c7 -7 7 -563 0 -563 -12 0 -398 40 -442 46 l-48 6 0 261 0 262 242 -3 c134 -2 245 -6 248 -9z m-2160 -242 l0 -178 -32 -7 c-18 -4 -94 -9 -169 -13 l-136 -6 -6 63 c-9 79 -9 248 -1 288 l6 30 169 0 169 1 0 -178z m900 -11 l0 -190 -43 0 c-24 0 -77 3 -118 6 l-74 6 3 122 3 121 76 40 c42 22 90 50 107 62 17 12 34 22 39 23 4 0 7 -85 7 -190z m-573 -57 l1 -113 -94 0 -94 0 0 159 0 159 93 -47 92 -46 2 -112z m273 -8 l0 -115 -52 0 c-29 0 -77 3 -105 6 l-53 7 0 103 0 104 86 -1 c47 0 88 2 92 5 3 3 11 6 19 6 10 0 13 -26 13 -115z m-592 -457 l-3 -163 -100 -3 c-55 -2 -133 0 -172 3 l-73 7 0 153 0 154 48 4 c26 2 104 4 175 5 l127 2 -2 -162z m1897 -13 c116 -20 219 -38 231 -40 20 -4 21 -12 27 -197 3 -140 2 -195 -7 -200 -13 -9 -421 -10 -453 -2 l-23 6 0 234 c0 129 3 234 8 234 4 0 102 -16 217 -35z"/>
<path d="M8043 3810 c-102 -21 -200 -100 -233 -186 -29 -79 -27 -166 6 -232 49 -98 127 -140 321 -173 120 -20 194 -48 218 -82 33 -48 9 -134 -45 -162 -42 -22 -146 -30 -198 -16 -59 16 -122 74 -122 112 l0 29 -80 2 c-163 4 -145 8 -142 -37 11 -121 95 -224 219 -267 59 -20 87 -23 203 -23 149 1 207 16 288 75 115 83 147 289 60 394 -60 73 -145 111 -324 146 -172 33 -211 58 -201 131 10 77 66 113 177 113 90 1 130 -19 156 -76 l17 -38 104 0 c119 0 118 -1 83 93 -29 76 -79 130 -158 169 -63 31 -73 33 -187 35 -66 1 -139 -2 -162 -7z"/>
<path d="M2596 3790 c3 -8 14 -40 24 -70 10 -30 78 -221 150 -425 73 -203 142 -399 154 -435 l23 -65 135 -3 c122 -2 136 -1 143 15 34 88 346 993 342 993 -1 0 -53 1 -114 3 l-113 2 -101 -310 c-55 -170 -110 -338 -121 -373 -11 -36 -25 -61 -31 -59 -13 3 -17 16 -166 459 l-93 277 -119 3 c-103 3 -118 1 -113 -12z"/>
<path d="M3672 3710 l3 -95 148 -3 147 -3 0 -409 0 -410 110 0 110 0 0 410 0 410 150 0 150 0 0 98 0 97 -410 0 -411 0 3 -95z"/>
<path d="M5383 3802 l-102 -3 -3 -352 c-3 -343 -4 -353 -26 -394 -29 -56 -69 -75 -163 -81 -67 -4 -84 -1 -132 21 -95 43 -92 27 -95 444 l-3 363 -109 0 -110 0 0 -362 c0 -385 5 -430 49 -502 79 -128 258 -193 459 -168 157 19 248 76 304 190 l33 67 3 320 c2 176 2 352 0 390 l-3 70 -102 -3z"/>
<path d="M5700 3298 l0 -508 110 0 110 0 0 170 0 170 58 -1 c31 -1 67 -4 80 -7 15 -5 55 -58 125 -167 l102 -160 128 -3 128 -3 -124 183 -124 183 61 30 c104 52 151 143 150 295 0 69 -5 95 -26 140 -34 76 -78 123 -140 151 -51 23 -65 24 -346 29 l-292 5 0 -507z m536 282 c52 -48 70 -140 39 -199 -26 -52 -74 -66 -225 -66 l-135 0 -3 148 -3 148 150 -3 c143 -3 151 -4 177 -28z"/>
<path d="M7038 3780 c-5 -14 -34 -88 -63 -165 -29 -77 -70 -183 -90 -235 -58 -150 -215 -577 -215 -584 0 -3 51 -6 113 -6 l114 0 32 103 32 102 209 -3 209 -3 33 -99 32 -100 118 0 118 0 -21 51 c-11 29 -55 147 -99 263 -43 116 -113 301 -155 411 -42 110 -84 219 -92 242 l-14 42 -126 3 -125 3 -10 -25z m156 -282 c27 -61 116 -306 116 -319 0 -11 -260 -12 -276 -1 -12 8 114 372 129 372 4 0 19 -24 31 -52z"/>
<path d="M1997 3763 c-13 -31 -266 -701 -346 -916 l-21 -58 117 3 117 3 31 98 30 99 204 -2 c112 0 208 -3 212 -5 4 -3 17 -36 29 -73 43 -134 26 -120 156 -124 63 -2 114 0 114 4 0 6 -237 640 -338 903 l-38 100 -125 3 -126 3 -16 -38z m176 -300 c58 -145 104 -278 100 -285 -7 -13 -283 -10 -283 3 0 7 30 92 66 190 50 134 70 177 79 169 6 -5 24 -40 38 -77z"/>
</g>
</svg>